<svg width="80" height="80" viewBox="0 0 80 80" fill="none" xmlns="http://www.w3.org/2000/svg">
<path d="M15.6931 31.7125L23.794 23.6116C24.4187 22.9869 24.7629 22.1562 24.7629 21.2726C24.7629 20.3891 24.4187 19.5584 23.794 18.9335L22.3931 17.5326C21.1033 16.2429 19.0049 16.2429 17.715 17.5326L9.61414 25.6335C8.32438 26.9233 8.32438 29.0218 9.61414 30.3116L11.015 31.7125C11.6599 32.3573 12.507 32.6798 13.3542 32.6798C14.2011 32.6798 15.0482 32.3573 15.6931 31.7125ZM11.0924 28.8335C10.6177 28.3588 10.6177 27.5864 11.0924 27.1117L19.1933 19.0109C19.4305 18.7734 19.7423 18.6548 20.0541 18.6548C20.366 18.6548 20.6778 18.7734 20.915 19.0109L22.3159 20.4118C22.5459 20.6417 22.6725 20.9474 22.6725 21.2726C22.6725 21.5979 22.5459 21.9036 22.3159 22.1335L14.215 30.2344C13.7405 30.7094 12.968 30.7093 12.4933 30.2344L11.0924 28.8335Z" fill="white"/>
<path d="M79.9394 40.3599L78.8155 37.2006C77.5344 33.5989 75.4662 30.2541 72.8184 27.494C73.2305 24.75 72.3498 21.9383 70.4526 20.0413C68.557 18.1458 65.7491 17.2646 63.007 17.6746L60.3018 14.9692L61.3027 13.9681C61.711 13.5599 61.711 12.8981 61.3027 12.49L56.3339 7.5212C55.9259 7.11305 55.2638 7.11305 54.856 7.5212L45.7657 16.6113C45.3574 17.0195 45.3574 17.6813 45.7657 18.0894L50.7345 23.0584C50.9305 23.2544 51.1961 23.3645 51.4734 23.3645C51.7506 23.3645 52.0164 23.2544 52.2124 23.0584L53.2135 22.0573L55.9188 24.7626C55.7552 25.8577 55.8008 26.9627 56.0315 28.0167L45.1077 38.9403L29.7601 23.5925C31.0044 21.9111 30.8701 19.5231 29.3474 18.0004L20.5243 9.17729C19.7124 8.36536 18.633 7.91819 17.4849 7.91819C16.3368 7.91819 15.2573 8.36536 14.4455 9.17729L1.2591 22.364C0.447165 23.176 0 24.2555 0 25.4034C0 26.5516 0.447165 27.6311 1.2591 28.4428L10.0822 37.2659C10.9203 38.104 12.0208 38.5229 13.1218 38.5229C13.8823 38.5229 14.6408 38.3181 15.3146 37.918L20.7764 38.9412L23.7431 44.0882C23.8955 44.3528 24.1561 44.5375 24.4563 44.5935L30.298 45.6877L33.2454 50.8028L18.6351 65.4129C16.9602 67.0878 16.971 69.8239 18.6593 71.5123C19.5073 72.3603 20.6194 72.7844 21.7292 72.7844C22.8279 72.7844 23.9239 72.3681 24.7573 71.5349L41.2947 54.9975L42.7848 57.5831C42.9372 57.8477 43.198 58.0324 43.4981 58.0886L49.3395 59.181L52.3045 64.3294C52.457 64.5942 52.7177 64.779 53.018 64.8353L58.8596 65.9277L61.8263 71.0763C61.9788 71.3409 62.2392 71.5255 62.5395 71.5818L68.8524 72.7646C68.9163 72.7766 68.9808 72.7825 69.0447 72.7825C69.3147 72.7825 69.5771 72.6778 69.7741 72.486L73.5141 68.8436C73.7143 68.6485 73.8282 68.3813 73.8299 68.1017C73.8317 67.8221 73.7216 67.5535 73.5237 67.3557L51.2299 45.0625L61.9596 34.3328C63.1682 34.674 64.46 34.766 65.7381 34.5739C68.4983 37.2217 71.843 39.2898 75.4449 40.571L78.6043 41.6949C78.7186 41.7357 78.8371 41.7553 78.9545 41.7553C79.2271 41.7553 79.4943 41.6486 79.6938 41.4493C79.9789 41.1639 80.0747 40.74 79.9394 40.3599ZM51.4734 20.8412L47.9827 17.3503L55.5948 9.73821L59.0855 13.229L51.4734 20.8412ZM11.5603 35.788L2.73716 26.9649C2.31996 26.5477 2.09037 25.9933 2.09037 25.4034C2.09037 24.8136 2.32014 24.2591 2.73716 23.8421L15.9237 10.6557C16.3408 10.2387 16.8952 10.0089 17.4851 10.0089C18.0749 10.0089 18.6294 10.2387 19.0464 10.6557L27.8695 19.4788C28.7304 20.3397 28.7304 21.7404 27.8695 22.6015L14.6786 35.792C13.8172 36.6486 12.4198 36.6477 11.5603 35.788ZM31.8689 44.2276C31.7165 43.963 31.4559 43.7783 31.1557 43.722L25.314 42.6277L22.3473 37.4807C22.1948 37.2161 21.9342 37.0315 21.6343 36.9754L17.2696 36.1577L28.3193 25.108L43.63 40.4187L34.7761 49.2727L31.8689 44.2276ZM71.2966 68.0855L68.7038 70.6106L63.3969 69.6163L60.4301 64.4676C60.2777 64.2028 60.0171 64.0181 59.7168 63.962L53.8754 62.8696L50.9104 57.7212C50.758 57.4565 50.4972 57.2716 50.1969 57.2154L44.3554 56.123L42.825 53.4675L49.7518 46.5407L71.2966 68.0855ZM23.2791 70.0574C22.4192 70.9174 21.0098 70.9069 20.1374 70.0347C19.2641 69.1615 19.2532 67.7515 20.1132 66.8917L56.8133 30.1916C57.1991 30.9333 57.6928 31.6155 58.2858 32.2085C58.7662 32.6889 59.3057 33.1037 59.8875 33.4493L23.2791 70.0574ZM76.1455 38.6017C72.6611 37.3621 69.437 35.3247 66.8221 32.7098C66.6241 32.5117 66.3574 32.4037 66.0832 32.4037C66.0095 32.4037 65.9353 32.4114 65.8618 32.4274C63.6303 32.9106 61.2942 32.2605 59.7638 30.7302C58.2337 29.1999 57.5832 26.8634 58.067 24.6324C58.1422 24.2851 58.0358 23.9233 57.7844 23.6719L54.7353 20.6228L58.8674 16.4908L61.9166 19.5399C62.1678 19.7911 62.5292 19.8981 62.8771 19.8223C65.1077 19.3389 67.4446 19.9889 68.9749 21.5194C70.5054 23.0499 71.1558 25.3864 70.6719 27.6171C70.5967 27.9645 70.7031 28.3263 70.9545 28.5777C73.5695 31.1927 75.6069 34.4168 76.8462 37.9011L77.2331 38.9882L76.1455 38.6017Z" fill="white"/>
</svg>
