<svg width="80" height="80" viewBox="0 0 80 80" fill="none" xmlns="http://www.w3.org/2000/svg">
<path d="M74.3997 36.1504L72.328 27.8637C72.8944 27.7434 73.3194 27.2409 73.3194 26.6389V25.3028C73.3194 22.4018 70.9592 20.0418 68.0584 20.0418H58.6222V17.2859C58.6222 15.8584 57.4609 14.6971 56.0334 14.6971H7.93312C6.50562 14.6971 5.34437 15.8584 5.34437 17.2859V40C5.34437 40.6917 5.90516 41.2526 6.59703 41.2526C7.28875 41.2526 7.84969 40.6918 7.84969 40V17.2859C7.84969 17.2398 7.88703 17.2025 7.93312 17.2025H56.0333C56.0794 17.2025 56.1167 17.2398 56.1167 17.2859V40.0003C56.1167 40.692 56.6775 41.2529 57.3694 41.2529C58.0611 41.2529 58.622 40.6921 58.622 40.0003V38.5803H73.3984C73.3997 38.5803 73.4006 38.5806 73.4017 38.5806C73.403 38.5806 73.4041 38.5804 73.4052 38.5804C75.2234 38.5817 76.7673 39.7751 77.2977 41.4196H73.4027C72.7109 41.4196 72.15 41.9804 72.15 42.6723V45.3445C72.15 47.5087 73.9106 49.2693 76.0748 49.2693H77.4945V54.7807H74.2192C73.1433 51.674 70.19 49.4362 66.722 49.4362C63.2541 49.4362 60.3006 51.674 59.2248 54.7807H58.6217V45.3443C58.6217 44.6526 58.0609 44.0917 57.3691 44.0917C56.6773 44.0917 56.1164 44.6525 56.1164 45.3443V54.7804H30.1277C29.0517 51.6737 26.0984 49.4359 22.6305 49.4359C19.1625 49.4359 16.2091 51.6737 15.1333 54.7804H7.93312C7.88703 54.7804 7.84969 54.7431 7.84969 54.697V51.9412H13.2777C13.9694 51.9412 14.5303 51.3804 14.5303 50.6886C14.5303 49.9967 13.9695 49.4359 13.2777 49.4359H1.25266C0.560938 49.4359 0 49.9967 0 50.6886C0 51.3804 0.560781 51.9412 1.25266 51.9412H5.34453V54.697C5.34453 56.1245 6.50578 57.2857 7.93328 57.2857H14.6995C14.6992 57.3136 14.6973 57.3412 14.6973 57.3692C14.6973 61.7436 18.2563 65.3023 22.6305 65.3023C27.0047 65.3023 30.5636 61.7436 30.5636 57.3692C30.5636 57.3411 30.5617 57.3136 30.5614 57.2857H58.7911C58.7908 57.3136 58.7889 57.3412 58.7889 57.3692C58.7889 61.7436 62.3478 65.3023 66.722 65.3023C71.0962 65.3023 74.6552 61.7436 74.6552 57.3692C74.6552 57.3411 74.6533 57.3136 74.653 57.2857H78.7472C79.4389 57.2857 79.9998 56.725 79.9998 56.0331V42.672C80 39.3732 77.5661 36.6325 74.3997 36.1504ZM58.6222 22.547H68.0584C69.578 22.547 70.8142 23.7832 70.8142 25.3028V25.3862H58.6222V22.547ZM58.6222 36.0751V27.8914H69.7527L71.7986 36.0751H58.6222ZM22.6305 62.7975C19.6375 62.7975 17.2025 60.3626 17.2025 57.3695C17.2025 54.3764 19.6375 51.9415 22.6305 51.9415C25.6234 51.9415 28.0584 54.3764 28.0584 57.3695C28.0584 60.3626 25.6234 62.7975 22.6305 62.7975ZM66.7223 62.7975C63.7294 62.7975 61.2944 60.3626 61.2944 57.3695C61.2944 54.3764 63.7294 51.9415 66.7223 51.9415C69.7153 51.9415 72.1503 54.3764 72.1503 57.3695C72.1503 60.3626 69.7153 62.7975 66.7223 62.7975ZM77.4948 46.764H76.0752C75.2923 46.764 74.6555 46.1271 74.6555 45.3443V43.9246H77.4947V46.764H77.4948Z" fill="white"/>
<path d="M22.6305 54.7809C21.203 54.7809 20.0417 55.9421 20.0417 57.3696C20.0417 58.7971 21.203 59.9584 22.6305 59.9584C24.058 59.9584 25.2192 58.7971 25.2192 57.3696C25.2192 55.9421 24.058 54.7809 22.6305 54.7809Z" fill="white"/>
<path d="M66.7224 54.7809C65.2949 54.7809 64.1336 55.9421 64.1336 57.3696C64.1336 58.7971 65.2949 59.9584 66.7224 59.9584C68.1499 59.9584 69.3111 58.7971 69.3111 57.3696C69.3111 55.9421 68.1499 54.7809 66.7224 54.7809Z" fill="white"/>
<path d="M52.025 49.4364H33.3194C32.6276 49.4364 32.0667 49.9972 32.0667 50.6891C32.0667 51.3809 32.6275 51.9417 33.3194 51.9417H52.025C52.7167 51.9417 53.2776 51.3809 53.2776 50.6891C53.2776 49.9972 52.7169 49.4364 52.025 49.4364Z" fill="white"/>
<path d="M19.9583 44.0919H3.92484C3.23312 44.0919 2.67218 44.6527 2.67218 45.3446C2.67218 46.0364 3.23296 46.5972 3.92484 46.5972H19.9583C20.65 46.5972 21.2109 46.0364 21.2109 45.3446C21.2109 44.6527 20.65 44.0919 19.9583 44.0919Z" fill="white"/>
<path d="M43.558 27.0891C43.0689 26.6 42.2757 26.6 41.7866 27.0892L30.6472 38.2284L24.8524 32.4336C24.3632 31.9444 23.57 31.9444 23.081 32.4336C22.5917 32.9228 22.5917 33.7158 23.081 34.205L29.7616 40.8856C30.0061 41.1303 30.3268 41.2525 30.6472 41.2525C30.9677 41.2525 31.2885 41.1303 31.5328 40.8856L43.5579 28.8606C44.0471 28.3713 44.0471 27.5783 43.558 27.0891Z" fill="white"/>
</svg>
