<svg width="118" height="118" viewBox="0 0 118 118" fill="none" xmlns="http://www.w3.org/2000/svg">
<path d="M10.391 25.5692C6.58631 31.0916 3.69485 37.2922 1.94159 43.9568H28.7796L10.391 25.5692Z" fill="#29337A"/>
<path d="M42.4765 2.36157C35.6787 4.34128 29.3831 7.50028 23.8394 11.6206L42.4765 30.2578V2.36157Z" fill="#29337A"/>
<path d="M25.2255 107.363C30.4255 111.002 36.235 113.819 42.4766 115.637V90.115L25.2255 107.363Z" fill="#29337A"/>
<path d="M2.61871 76.4207C4.56952 82.7397 7.55888 88.602 11.3793 93.817L28.7756 76.4207H2.61871V76.4207Z" fill="#29337A"/>
<path d="M11.3643 24.1998C11.0345 24.6507 10.7094 25.1081 10.3908 25.5702L28.7793 43.9578H1.94135C1.50639 45.6131 1.15141 47.3004 0.858948 49.0108H36.1772L11.3643 24.1998Z" fill="white"/>
<path d="M23.8568 106.39C24.3057 106.724 24.7671 107.043 25.2252 107.363L42.4763 90.1143V115.636C44.1336 116.12 45.8169 116.539 47.5293 116.875V82.7181L23.8568 106.39Z" fill="white"/>
<path d="M1.30786 71.3678C1.67406 73.08 2.10627 74.7662 2.6177 76.4208H28.7748L11.3785 93.8171C13.2705 96.4022 15.3686 98.8281 17.6482 101.071L47.3515 71.3678H1.30786Z" fill="white"/>
<path d="M42.4766 2.36165V30.2579L23.8391 11.6217C21.2698 13.5324 18.8681 15.6536 16.6428 17.9499L47.5286 48.8357V1.12256C45.8172 1.46085 44.1339 1.88011 42.4766 2.36165Z" fill="white"/>
<path d="M42.4766 76.2426L42.2994 76.4207H42.4766V76.2426Z" fill="#D32030"/>
<path d="M47.3525 71.3677H47.5294V71.1898L47.3525 71.3677Z" fill="#D32030"/>
<path d="M70.0579 49.0098H69.8875V49.1812L70.0579 49.0098Z" fill="#D32030"/>
<path d="M42.6507 43.9577L42.4766 43.7826V43.9577H42.6507Z" fill="#D32030"/>
<path d="M47.5293 48.8354V49.0098H47.7037L47.5293 48.8354Z" fill="#D32030"/>
<path d="M74.9396 102.576V115.802C81.2623 114.032 87.1573 111.242 92.4301 107.606L78.0996 93.276C76.9544 97.2994 76.5354 99.3795 74.9396 102.576Z" fill="#252F6C"/>
<path d="M78.1748 27.0215L93.8188 11.3775C88.1986 7.26163 81.8228 4.12504 74.9393 2.19666V15.7828C76.7792 19.4672 76.9339 22.2667 78.1748 27.0215Z" fill="#252F6C"/>
<path d="M106.379 94.1609C110.318 88.861 113.389 82.8785 115.383 76.4208H88.6385L106.379 94.1609Z" fill="#252F6C"/>
<path d="M116.059 43.9578C114.268 37.1525 111.29 30.8355 107.365 25.2264L88.6318 43.9578H116.059Z" fill="#252F6C"/>
<path d="M81.619 72.3673L85.6733 76.4217L105.08 95.8283C105.521 95.2768 105.958 94.7273 106.38 94.1618L88.6395 76.4217H115.384C115.894 74.7681 116.327 73.0811 116.692 71.3687H81.9981C81.9413 72.0851 81.687 71.6556 81.619 72.3673Z" fill="#E7E7E7"/>
<path d="M77.5619 29.9802L95.1511 12.3891C94.7104 12.0473 94.269 11.7073 93.8188 11.3774L78.1748 27.0215C78.3369 27.6401 77.411 29.3467 77.5619 29.9802Z" fill="#E7E7E7"/>
<path d="M74.9395 14.6956V2.19563C73.2841 1.73178 71.5989 1.33868 69.8865 1.01807V7.11536C71.7665 9.15361 73.4518 11.7137 74.9395 14.6956Z" fill="#E7E7E7"/>
<path d="M81.2211 49.0098H117.142C116.85 47.2994 116.495 45.6131 116.06 43.9568H88.6328L107.366 25.2254C105.524 22.5945 103.478 20.1203 101.242 17.8278L80.1415 38.9262C80.7097 42.7533 80.964 44.9759 81.2211 49.0098Z" fill="#E7E7E7"/>
<path d="M77.2471 92.4216L92.431 107.607C94.9565 105.868 97.3348 103.932 99.5539 101.831L79.5818 81.8574C78.9443 85.5513 78.188 89.1191 77.2471 92.4216Z" fill="#E7E7E7"/>
<path d="M69.8875 110.183V116.979C71.5996 116.66 73.2841 116.265 74.9405 115.801V102.576C73.4518 105.559 71.7665 108.147 69.8875 110.183Z" fill="#E7E7E7"/>
<path d="M80.1415 38.9262L101.24 17.8278C99.3404 15.877 97.3039 14.0615 95.1501 12.3892L78.5716 28.9704C79.3085 32.0502 79.643 35.5754 80.1415 38.9262Z" fill="#D71F28"/>
<path d="M56.0552 0.0727411C57.0382 0.0251604 58.0182 0 58.999 0C58.0125 0 57.0308 0.0251604 56.0552 0.0727411Z" fill="#D32030"/>
<path d="M58.999 118C58.018 118 57.038 117.973 56.0569 117.926C57.0325 117.975 58.0125 118 58.999 118Z" fill="#D32030"/>
<path d="M58.999 118C62.7215 118 66.3566 117.64 69.8873 116.979V110.183C66.7881 113.542 63.1625 118 58.999 118Z" fill="#D32030"/>
<path d="M117.141 49.0098H81.687C82.1566 56.4094 82.0998 64.0186 81.5174 71.3677H116.692C117.544 67.3776 118 63.2434 118 59.001C118 55.5931 117.696 52.2599 117.141 49.0098Z" fill="#D71F28"/>
<path d="M81.619 72.3674C81.2912 75.8535 80.149 78.5699 79.5807 81.8584L99.5529 101.831C101.529 99.958 103.376 97.9551 105.079 95.8284L85.6731 76.4208L81.619 72.3674Z" fill="#D71F28"/>
<path d="M69.8875 7.55411V1.01912C66.3578 0.360467 62.7228 0 58.999 0C63.1625 0 66.7881 4.19582 69.8875 7.55411Z" fill="#D32030"/>
<path d="M74.9395 105.128C76.5353 101.93 77.9037 98.2497 79.0496 94.2271L74.9395 90.1169V105.128Z" fill="#29337A"/>
<path d="M79.5611 25.6352C78.3182 20.8804 76.7795 16.5578 74.9395 12.8734V30.2548L79.5611 25.6352Z" fill="#29337A"/>
<path d="M82.7639 73.5113C82.8309 72.7996 82.8915 72.0851 82.9493 71.3677H80.6203L82.7639 73.5113Z" fill="white"/>
<path d="M74.9395 30.255V12.8726C73.4508 9.89074 71.7665 7.32886 69.8865 5.29236V37.6537L80.0341 27.506C79.8814 26.8725 79.721 26.252 79.5608 25.6335L74.9395 30.255Z" fill="white"/>
<path d="M70.0579 49.0098H83.1186C82.8625 44.9761 82.4545 41.0075 81.887 37.1814L70.0579 49.0098Z" fill="white"/>
<path d="M69.8875 112.707C71.7675 110.669 73.4518 108.108 74.9405 105.126V90.1159L79.0506 94.2261C79.9932 90.9218 80.7842 87.3919 81.4234 83.6983L69.8877 72.1633L69.8875 112.707Z" fill="white"/>
<path d="M69.8875 112.707V72.1634L81.4224 83.6991C81.9897 80.4096 82.4361 76.9982 82.7629 73.5114L80.6193 71.3677H82.9483C83.5304 64.0184 83.5872 56.4092 83.1179 49.0098H70.0572L81.8855 37.1814C81.3871 33.8296 80.7705 30.5876 80.0336 27.5068L69.8877 37.6545V5.29316C66.788 1.93387 63.1624 0 58.999 0C58.018 0 57.038 0.0251604 56.0552 0.0727411C53.1533 0.217974 50.3074 0.574954 47.5293 1.12275V48.8357L16.6428 17.9499C14.745 19.9081 12.9798 21.9947 11.3643 24.1999L31.1222 43.9578L36.177 49.0108H0.858943C0.305662 52.26 0 55.5931 0 59.001C0 63.2444 0.458369 67.3777 1.30785 71.3677H47.3525L17.6489 101.071C19.594 102.982 21.6649 104.761 23.8571 106.39L47.5286 82.7181V116.876C50.3064 117.423 53.1543 117.78 56.0562 117.926C57.0372 117.973 58.0172 118 58.9983 118C63.1624 118 66.788 116.066 69.8875 112.707Z" fill="#E51D35"/>
</svg>
