<svg width="75" height="75" viewBox="0 0 75 75" fill="none" xmlns="http://www.w3.org/2000/svg">
<path d="M67.9688 9.375H7.03125C3.14795 9.375 0 12.5229 0 16.4062V58.5938C0 62.4771 3.14795 65.625 7.03125 65.625H67.9688C71.8521 65.625 75 62.4771 75 58.5938V16.4062C75 12.5229 71.8521 9.375 67.9688 9.375ZM67.9688 16.4062V22.3835C64.6843 25.0582 59.448 29.2172 48.2539 37.9827C45.7869 39.9231 40.9002 44.585 37.5 44.5307C34.1004 44.5856 29.2121 39.9224 26.7461 37.9827C15.5537 29.2185 10.3162 25.0586 7.03125 22.3835V16.4062H67.9688ZM7.03125 58.5938V31.406C10.3878 34.0794 15.1478 37.8311 22.403 43.5123C25.6047 46.0326 31.2117 51.5962 37.5 51.5624C43.7574 51.5962 49.2933 46.1133 52.5957 43.5135C59.8507 37.8324 64.6121 34.0797 67.9688 31.4061V58.5938H7.03125Z" fill="#0B5C97"/>
</svg>
