<svg width="75" height="75" viewBox="0 0 75 75" fill="none" xmlns="http://www.w3.org/2000/svg">
<g clip-path="url(#clip0)">
<path d="M72.2755 3.60351L57.0411 0.0878878C55.3858 -0.292972 53.6866 0.571286 53.0128 2.12402L45.9815 18.5303C45.3663 19.9658 45.7764 21.6504 46.9922 22.6318L55.8692 29.8975C50.5958 41.1328 41.3819 50.4785 29.9122 55.8545L22.6465 46.9775C21.6505 45.7617 19.9805 45.3516 18.545 45.9668L2.13873 52.998C0.57135 53.6865 -0.292908 55.3857 0.0879515 57.041L3.60358 72.2754C3.96979 73.8574 5.37604 75 7.03131 75C44.546 75 75.0001 44.6045 75.0001 7.03125C75.0001 5.39062 73.8721 3.96972 72.2755 3.60351Z" fill="#0B5C97"/>
</g>
<defs>
<clipPath id="clip0">
<rect width="75" height="75" fill="white"/>
</clipPath>
</defs>
</svg>
